<mxfile host="app.diagrams.net" modified="2022-04-25T03:45:46.331Z" agent="5.0 (X11; Linux x86_64) AppleWebKit/537.36 (KHTML, like Gecko) Chrome/100.0.4896.75 Safari/537.36" etag="MnYo-ikqMxvlwBjAK8i5" version="17.4.6" type="github">
  <diagram id="YoEk6i3AdPvrULS0v2Wl" name="Page-1">
    <mxGraphModel dx="1372" dy="800" grid="1" gridSize="10" guides="1" tooltips="1" connect="1" arrows="1" fold="1" page="1" pageScale="1" pageWidth="827" pageHeight="1169" math="0" shadow="0">
      <root>
        <mxCell id="0" />
        <mxCell id="1" parent="0" />
        <mxCell id="S6kQfSWDCOLg-lDrN3mq-3" value="" style="edgeStyle=orthogonalEdgeStyle;rounded=0;orthogonalLoop=1;jettySize=auto;html=1;" edge="1" parent="1" source="S6kQfSWDCOLg-lDrN3mq-1" target="S6kQfSWDCOLg-lDrN3mq-2">
          <mxGeometry relative="1" as="geometry" />
        </mxCell>
        <mxCell id="S6kQfSWDCOLg-lDrN3mq-1" value="" style="rounded=1;whiteSpace=wrap;html=1;" vertex="1" parent="1">
          <mxGeometry x="170" y="130" width="120" height="60" as="geometry" />
        </mxCell>
        <mxCell id="S6kQfSWDCOLg-lDrN3mq-5" value="" style="edgeStyle=orthogonalEdgeStyle;rounded=0;orthogonalLoop=1;jettySize=auto;html=1;" edge="1" parent="1" source="S6kQfSWDCOLg-lDrN3mq-2" target="S6kQfSWDCOLg-lDrN3mq-4">
          <mxGeometry relative="1" as="geometry" />
        </mxCell>
        <mxCell id="S6kQfSWDCOLg-lDrN3mq-2" value="" style="ellipse;whiteSpace=wrap;html=1;rounded=1;" vertex="1" parent="1">
          <mxGeometry x="370" y="130" width="120" height="60" as="geometry" />
        </mxCell>
        <mxCell id="S6kQfSWDCOLg-lDrN3mq-4" value="" style="rhombus;whiteSpace=wrap;html=1;rounded=1;" vertex="1" parent="1">
          <mxGeometry x="360" y="260" width="140" height="80" as="geometry" />
        </mxCell>
        <mxCell id="S6kQfSWDCOLg-lDrN3mq-6" value="" style="ellipse;whiteSpace=wrap;html=1;" vertex="1" parent="1">
          <mxGeometry x="190" y="340" width="150" height="80" as="geometry" />
        </mxCell>
      </root>
    </mxGraphModel>
  </diagram>
</mxfile>
